<svg width="109" height="109" viewBox="0 0 109 109" fill="none" xmlns="http://www.w3.org/2000/svg">
<g clip-path="url(#clip0_159_60)">
<path d="M81.7455 101.69C55.6828 116.738 22.3568 107.808 7.30954 81.7454C-7.73777 55.6829 1.19193 22.3568 27.2546 7.30946C53.3171 -7.73774 86.6432 1.19199 101.691 27.2545C116.738 53.3172 107.808 86.6432 81.7455 101.69Z" fill="url(#paint0_radial_159_60)"/>
<path d="M79 98.774L77.2918 99.6889C76.5442 100.089 75.8623 100.103 75.2459 99.7309C74.6295 99.3586 74.077 98.6128 73.5887 97.4935C73.1003 96.3742 72.9158 95.4314 73.0352 94.665C73.1548 93.8985 73.5882 93.3152 74.3357 92.9149L76.044 92L79 98.774ZM74.6799 93.6045C74.1894 93.8673 73.9034 94.252 73.8218 94.7586C73.7344 95.2683 73.8404 95.8661 74.1397 96.5519L74.597 97.6001C74.8963 98.2859 75.2533 98.7492 75.6682 98.99C76.0773 99.2338 76.5271 99.2244 77.0176 98.9617L77.955 98.4596L75.6173 93.1025L74.6799 93.6045Z" fill="white"/>
<path d="M70.0149 95L70.2055 95.7264L68.5883 96.3036L70.1924 102.418L71.8095 101.841L72 102.567L67.9851 104L67.7946 103.274L69.4117 102.697L67.8076 96.5824L66.1905 97.1595L66 96.4333L70.0149 95Z" fill="white"/>
<path d="M61.4698 97.0535C62.1848 96.9528 62.7894 96.9943 63.2837 97.1777C63.7793 97.3685 64.2055 97.6396 64.5624 97.9911L63.9502 98.6353C63.5815 98.3078 63.2119 98.077 62.8418 97.9431C62.464 97.8103 62.0355 97.7774 61.5563 97.8449C60.9782 97.9262 60.5566 98.1158 60.2915 98.4135C60.0264 98.7112 59.929 99.0896 59.9995 99.5484C60.0564 99.9198 60.2109 100.192 60.4627 100.365C60.7157 100.545 61.1228 100.64 61.6837 100.651L62.5954 100.668C62.9934 100.679 63.3355 100.731 63.6219 100.825C63.9005 100.919 64.1337 101.046 64.3214 101.206C64.5102 101.373 64.6555 101.561 64.7575 101.77C64.8606 101.986 64.9307 102.214 64.9676 102.454C65.0748 103.154 64.9162 103.715 64.4917 104.14C64.0674 104.564 63.4483 104.834 62.6345 104.948C61.9955 105.038 61.4438 105.011 60.9789 104.868C60.5064 104.727 60.1087 104.489 59.7854 104.155L60.3731 103.503C60.6361 103.748 60.937 103.937 61.2757 104.068C61.6143 104.199 62.0308 104.229 62.5252 104.16C63.0652 104.084 63.463 103.916 63.7184 103.657C63.974 103.398 64.0681 103.05 64.0011 102.613C63.9486 102.27 63.799 102.005 63.5525 101.816C63.2996 101.636 62.8844 101.538 62.307 101.523L61.4296 101.501C61.0317 101.49 60.6895 101.438 60.4032 101.344C60.1169 101.251 59.88 101.124 59.6923 100.964C59.497 100.806 59.3478 100.619 59.2448 100.402C59.1415 100.186 59.0711 99.9544 59.033 99.7067C58.9246 99.0003 59.0832 98.4124 59.5084 97.9434C59.9261 97.4753 60.5799 97.1787 61.4698 97.0535Z" fill="white"/>
<path d="M54.7944 98.0001C55.8854 98.006 56.6967 98.354 57.2287 99.0438C57.752 99.7337 58.0092 100.725 57.9998 102.018C57.9903 103.31 57.719 104.299 57.1855 104.983C56.6436 105.667 55.8272 106.006 54.7362 106C54.3271 105.998 53.9738 105.948 53.6762 105.85C53.3786 105.752 53.1238 105.622 52.912 105.458C52.7001 105.294 52.5224 105.109 52.3791 104.901C52.2356 104.701 52.1093 104.497 52 104.29L52.923 103.929C52.9985 104.099 53.0868 104.259 53.188 104.407C53.2892 104.563 53.4119 104.696 53.5559 104.808C53.6914 104.927 53.8569 105.02 54.0525 105.088C54.2395 105.155 54.4693 105.19 54.7421 105.191C55.4496 105.195 55.9796 104.965 56.3323 104.502C56.6767 104.038 56.8517 103.419 56.8573 102.643L56.8666 101.38C56.8722 100.604 56.7063 99.9829 56.3686 99.5157C56.0226 99.0484 55.4959 98.8128 54.7885 98.8089C54.5158 98.8074 54.2854 98.8394 54.0975 98.9049C53.9009 98.9703 53.7341 99.0581 53.5969 99.1681C53.4512 99.2855 53.3267 99.4178 53.2233 99.565C53.1199 99.7195 53.0292 99.8815 52.9513 100.051L52.0334 99.6804C52.1457 99.4667 52.2752 99.2606 52.4216 99.062C52.5678 98.8634 52.7482 98.6833 52.9624 98.522C53.1767 98.3606 53.4333 98.2328 53.7323 98.1383C54.0313 98.044 54.3853 97.9979 54.7944 98.0001Z" fill="white"/>
<path d="M48.6839 97.0435C49.1855 97.119 49.6013 97.2715 49.9315 97.5012C50.2603 97.7382 50.5131 98.0424 50.6901 98.414C50.8671 98.7854 50.968 99.2243 50.993 99.7305C51.018 100.237 50.976 100.804 50.8674 101.432C50.7598 102.054 50.6088 102.601 50.4145 103.074C50.2187 103.554 49.9742 103.945 49.681 104.246C49.3876 104.547 49.0456 104.758 48.6547 104.879C48.2627 105.007 47.8158 105.034 47.3143 104.958C46.8127 104.883 46.3975 104.726 46.0686 104.489C45.7385 104.26 45.485 103.959 45.308 103.588C45.1311 103.216 45.0307 102.774 45.0071 102.26C44.9821 101.754 45.0233 101.19 45.1308 100.569C45.2396 99.9406 45.3912 99.3899 45.5856 98.9167C45.78 98.4437 46.024 98.0567 46.3172 97.7559C46.6105 97.455 46.9532 97.2404 47.3452 97.112C47.7361 96.9909 48.1823 96.968 48.6839 97.0435ZM48.5455 97.8438C48.2162 97.7942 47.9279 97.8107 47.6804 97.8935C47.4317 97.9836 47.2138 98.1269 47.027 98.3239C46.8402 98.5207 46.6888 98.7678 46.573 99.0654C46.4482 99.3689 46.3522 99.7144 46.2852 100.102L46.0689 101.352C46.0031 101.731 45.9783 102.084 45.9945 102.409C46.0028 102.732 46.0624 103.015 46.1734 103.257C46.2843 103.498 46.4434 103.695 46.6504 103.846C46.8561 104.004 47.1236 104.108 47.4527 104.158C47.7819 104.207 48.0708 104.187 48.3197 104.097C48.567 104.014 48.7844 103.875 48.9711 103.678C49.1579 103.481 49.3138 103.231 49.4388 102.927C49.5558 102.622 49.6472 102.28 49.713 101.9L49.9292 100.65C49.9962 100.263 50.0257 99.9073 50.0173 99.5836C49.9999 99.2661 49.9356 98.9865 49.8248 98.7449C49.7139 98.5032 49.5555 98.3032 49.3496 98.1447C49.1426 97.9935 48.8746 97.8932 48.5455 97.8438Z" fill="white"/>
<path d="M43 96.3638L42.8251 104L41.8432 103.716L41.9803 99.9123L42.0828 97.0345L42.0276 97.0187L40.2702 99.4177L37.9488 102.59L37 102.315L41.7423 96L43 96.3638Z" fill="white"/>
<path d="M38 95.1135L34.4231 102L30 99.8865L30.3741 99.1662L33.9331 100.867L35.1373 98.5484L31.7018 96.9067L32.0759 96.1865L35.5114 97.8282L36.7619 95.4208L33.2028 93.7202L33.5769 93L38 95.1135Z" fill="white"/>
<path d="M31.2173 91.3273L32 91.8486L27.4199 98L25.053 96.4237C24.4504 96.0225 24.1067 95.5606 24.0216 95.0383C23.9367 94.5159 24.102 93.9756 24.5175 93.4174C24.8894 92.9179 25.3234 92.6095 25.8199 92.4919C26.3164 92.3743 26.843 92.4658 27.3999 92.7662L27.7228 89L28.5987 89.5834L28.2276 93.2646L29.2618 93.9535L31.2173 91.3273ZM27.2305 93.5366C26.9012 93.3174 26.5897 93.2242 26.2958 93.2569C25.9912 93.2914 25.7319 93.4527 25.5175 93.7405L25.1763 94.1989C24.9619 94.4868 24.8911 94.7691 24.9637 95.0459C25.0257 95.3246 25.2214 95.5736 25.5507 95.7928L27.1162 96.8354L28.796 94.5792L27.2305 93.5366Z" fill="white"/>
<path d="M17.2885 88.1504L22.3897 84L23 84.6267L17.8988 88.777L19.5917 90.5152L18.9959 91L15 86.897L15.5958 86.4122L17.2885 88.1504Z" fill="white"/>
<path d="M14.9824 79.5979L16.6025 82.0293L19.4996 80.1824L20 80.9333L13.621 85L13.1205 84.2491L15.9354 82.4546L14.3152 80.0231L11.5004 81.8177L11 81.0668L17.379 77L17.8795 77.7509L14.9824 79.5979Z" fill="white"/>
<path d="M16 75.0429L8.95545 78L7 73.9571L7.73682 73.6479L9.31022 76.9009L11.6819 75.9053L10.163 72.765L10.8998 72.4557L12.4187 75.596L14.8813 74.5623L13.3077 71.3092L14.0446 71L16 75.0429Z" fill="white"/>
<path d="M12 65.7988L5.05612 68L4.90664 67.143L8.891 65.9103L10.9933 65.2635L10.9774 65.1721L6.45882 65.0877L6.2715 64.0136L10.4234 61.9959L10.4074 61.9044L8.24533 62.2084L4.14549 62.7783L4 61.9443L11.163 61L11.4042 62.3825L7.35967 64.2933L7.37564 64.3847L11.7589 64.4163L12 65.7988Z" fill="white"/>
<path d="M10.9968 57.3464C11.0166 57.782 10.9448 58.1598 10.7819 58.4797C10.6116 58.7999 10.3613 59.0687 10.0309 59.2859C9.70068 59.5032 9.29039 59.669 8.80018 59.7832C8.30983 59.8975 7.74745 59.9669 7.11262 59.9913C6.48514 60.0154 5.92207 59.9894 5.42327 59.9131C4.91699 59.8371 4.48952 59.7036 4.14074 59.5124C3.79195 59.3213 3.52198 59.0726 3.33069 58.7663C3.13191 58.4603 3.02276 58.0895 3.00309 57.6539C2.98328 57.2182 3.05864 56.8403 3.22902 56.5201C3.39205 56.2003 3.63861 55.9316 3.96897 55.7143C4.29934 55.4971 4.71323 55.3311 5.21078 55.2166C5.70113 55.1022 6.25991 55.033 6.88725 55.0089C7.52208 54.9845 8.08889 55.0104 8.58769 55.0867C9.08663 55.163 9.51036 55.2967 9.85914 55.4879C10.2079 55.679 10.4816 55.9275 10.6803 56.2336C10.8717 56.5399 10.9771 56.9108 10.9968 57.3464ZM10.1887 57.3775C10.1757 57.0916 10.1057 56.8522 9.97868 56.6595C9.84432 56.4668 9.66342 56.3101 9.43611 56.1894C9.20881 56.0686 8.93897 55.9869 8.62648 55.9444C8.30636 55.8954 7.95065 55.8782 7.55948 55.8933L6.29731 55.9418C5.91348 55.9567 5.56428 56.0007 5.24957 56.0742C4.93472 56.1409 4.66946 56.2432 4.45378 56.381C4.23825 56.5188 4.07591 56.6887 3.96676 56.8907C3.85012 57.0929 3.79832 57.3368 3.81134 57.6227C3.82422 57.9087 3.89791 58.1478 4.03228 58.3404C4.1593 58.5333 4.33646 58.6901 4.56377 58.8109C4.79107 58.9317 5.06478 59.0167 5.3849 59.0657C5.70473 59.108 6.05657 59.1217 6.4404 59.107L7.70257 59.0584C8.09374 59.0434 8.44682 59.0025 8.76181 58.9358C9.06904 58.8626 9.33042 58.7571 9.54609 58.6193C9.76163 58.4815 9.92771 58.3115 10.0442 58.1092C10.1534 57.9073 10.2016 57.6633 10.1887 57.3775Z" fill="white"/>
<path d="M11.5066 52.0103L11.396 53L3 52.1005L3.33428 49.1083C3.41928 48.3465 3.69668 47.788 4.16648 47.4331C4.63613 47.078 5.25204 46.9413 6.01376 47.0229C6.69547 47.0959 7.22139 47.3272 7.59181 47.7165C7.96224 48.1059 8.14269 48.6339 8.13316 49.3005L12 47.5926L11.8763 48.7001L8.06812 50.3187L7.922 51.6263L11.5066 52.0103ZM7.289 49.5557C7.33543 49.1396 7.26722 48.8063 7.0842 48.5562C6.89392 48.2974 6.60245 48.1469 6.20949 48.1049L5.5839 48.0379C5.19109 47.9958 4.87708 48.0815 4.64233 48.2946C4.40032 48.4992 4.25618 48.8097 4.20974 49.226L3.98861 51.205L7.06802 51.5349L7.289 49.5557Z" fill="white"/>
<path d="M11.7632 46L4 43.8481L4.25029 42.8816L11.2017 44.8085L12.1881 41L13 41.2251L11.7632 46Z" fill="white"/>
<path d="M6 36.7432L6.95235 34.6762C7.36927 33.7717 8.00564 33.2337 8.86191 33.0621C9.71803 32.8907 10.786 33.074 12.0659 33.6121C13.3456 34.1502 14.2085 34.7788 14.6544 35.4978C15.1003 36.2167 15.1147 37.0284 14.6979 37.933L13.7454 40L6 36.7432ZM13.8683 37.6349C14.1418 37.0412 14.1325 36.5058 13.8401 36.0285C13.5511 35.5442 13.0145 35.1373 12.2303 34.8075L11.0318 34.3035C10.2477 33.9739 9.57103 33.8707 9.00195 33.9942C8.4362 34.1106 8.0164 34.4655 7.74285 35.0592L7.2203 36.1934L13.3457 38.769L13.8683 37.6349Z" fill="white"/>
<path d="M15.473 30.2809L12.8809 29.0037L11 27.8134L11.5172 27L13.3981 28.1902L15.661 29.9852L15.473 30.2809ZM17.8093 31.552C17.6487 31.8046 17.4826 31.9502 17.3108 31.9885C17.1432 32.0205 16.9791 31.9859 16.8185 31.8842L16.6517 31.7786C16.4911 31.6771 16.3896 31.5437 16.3472 31.3786C16.3089 31.2075 16.37 30.9955 16.5306 30.7428C16.6913 30.4902 16.8555 30.3478 17.0231 30.3157C17.1948 30.2773 17.3609 30.309 17.5215 30.4106L17.6883 30.5162C17.8489 30.6178 17.9483 30.7542 17.9867 30.9255C18.0291 31.0905 17.9699 31.2993 17.8093 31.552Z" fill="white"/>
<path d="M28 10.3793L29.993 9.35002C30.8651 8.89966 31.6607 8.8839 32.3798 9.30273C33.0989 9.72155 33.7433 10.5606 34.3132 11.8198C34.883 13.079 35.0983 14.1396 34.9589 15.0018C34.8194 15.864 34.3137 16.5204 33.4416 16.9707L31.4487 18L28 10.3793ZM33.0401 16.1948C33.6123 15.8994 33.9461 15.4666 34.0413 14.8966C34.1432 14.3232 34.0196 13.6506 33.6704 12.879L33.1368 11.7C32.7876 10.9285 32.371 10.4073 31.887 10.1364C31.4098 9.86207 30.8851 9.87268 30.3128 10.1683L29.2192 10.7329L31.9465 16.7596L33.0401 16.1948Z" fill="white"/>
<path d="M37.316 15L37.0937 14.2737L38.9803 13.6964L37.1089 7.58222L35.2222 8.15955L35 7.43313L39.684 6L39.9064 6.72642L38.0197 7.30361L39.8911 13.4178L41.7778 12.8406L42 13.5669L37.316 15Z" fill="white"/>
<path d="M46.5303 12.9465C45.8153 13.0472 45.2106 13.0057 44.7162 12.8223C44.2208 12.6317 43.7946 12.3604 43.4376 12.0089L44.0497 11.3647C44.4186 11.6922 44.788 11.923 45.1583 12.0569C45.5361 12.1898 45.9645 12.2226 46.4438 12.1552C47.0218 12.0738 47.4434 11.8842 47.7085 11.5865C47.9735 11.2888 48.071 10.9106 48.0005 10.4516C47.9436 10.0801 47.7892 9.80795 47.5372 9.63513C47.2843 9.45486 46.8774 9.35962 46.3162 9.34927L45.4045 9.33243C45.0067 9.32152 44.6645 9.26921 44.3781 9.17562C44.0995 9.08079 43.8662 8.95366 43.6786 8.7941C43.4897 8.62722 43.3444 8.43922 43.2424 8.23037C43.1393 8.01421 43.0694 7.78605 43.0325 7.54559C42.9251 6.84646 43.0837 6.28467 43.5082 5.86036C43.9325 5.43604 44.5516 5.1666 45.3655 5.05204C46.0044 4.96218 46.5562 4.98868 47.0211 5.13168C47.4936 5.27358 47.8914 5.51141 48.2146 5.84545L47.6269 6.49738C47.3638 6.25168 47.063 6.06326 46.7244 5.93241C46.3857 5.80142 45.9693 5.77077 45.4749 5.84034C44.9348 5.91626 44.5371 6.08383 44.2815 6.34305C44.0261 6.60228 43.9318 6.95026 43.9988 7.38727C44.0515 7.72959 44.2009 7.99503 44.4474 8.18358C44.7004 8.36385 45.1155 8.46172 45.6929 8.47718L46.5703 8.49871C46.9683 8.50975 47.3105 8.56207 47.5968 8.65565C47.8832 8.74938 48.1201 8.87595 48.3078 9.03566C48.503 9.19412 48.6522 9.38143 48.7554 9.59759C48.8584 9.81374 48.9289 10.0456 48.967 10.2934C49.0754 10.9999 48.917 11.5876 48.4916 12.0568C48.0739 12.5247 47.42 12.8213 46.5303 12.9465Z" fill="white"/>
<path d="M52.6712 11.9999C51.7622 11.994 51.086 11.646 50.6426 10.9561C50.2065 10.2662 49.9924 9.27509 50.0002 7.98227C50.0079 6.68959 50.2342 5.70121 50.6787 5.01713C51.1303 4.33305 51.8107 3.99399 52.7197 4.00008C53.0606 4.0023 53.3551 4.05216 53.603 4.14981C53.8511 4.24745 54.0634 4.3782 54.24 4.54192C54.4166 4.70549 54.5645 4.89123 54.684 5.09885C54.8036 5.29899 54.9089 5.50287 55 5.71035L54.2307 6.07088C54.1678 5.90066 54.0942 5.74138 54.0099 5.59304C53.9256 5.43736 53.8234 5.3037 53.7033 5.19207C53.5904 5.07323 53.4524 4.97987 53.2895 4.91242C53.1336 4.84483 52.9421 4.81034 52.7148 4.80882C52.1254 4.80508 51.6836 5.03486 51.3896 5.4983C51.1026 5.96174 50.9568 6.58128 50.9521 7.35691L50.9445 8.62009C50.9397 9.39572 51.0781 10.0172 51.3594 10.4844C51.6477 10.9517 52.0866 11.1873 52.6762 11.191C52.9035 11.1926 53.0954 11.1606 53.252 11.0952C53.4158 11.0297 53.5548 10.942 53.6691 10.8319C53.7905 10.7146 53.8944 10.5823 53.9804 10.4351C54.0667 10.2805 54.1422 10.1184 54.2072 9.94906L54.972 10.3197C54.8784 10.5333 54.7705 10.7395 54.6487 10.9381C54.5267 11.1367 54.3765 11.3168 54.1979 11.4782C54.0193 11.6394 53.8055 11.7674 53.5563 11.8617C53.3071 11.9561 53.0121 12.0023 52.6712 11.9999Z" fill="white"/>
<path d="M59.3161 12.9565C58.8146 12.8811 58.3988 12.7286 58.0687 12.4989C57.7397 12.2619 57.4869 11.9577 57.3099 11.5861C57.1329 11.2146 57.032 10.7757 57.007 10.2696C56.982 9.76343 57.024 9.19616 57.1328 8.56768C57.2402 7.94642 57.3912 7.39927 57.5857 6.92611C57.7813 6.44572 58.0258 6.05514 58.319 5.75437C58.6124 5.45345 58.9544 5.24262 59.3453 5.12145C59.7373 4.99292 60.1841 4.96641 60.6857 5.04191C61.1873 5.11742 61.6025 5.27357 61.9313 5.51064C62.2614 5.74021 62.5151 6.04085 62.6919 6.41241C62.8689 6.78398 62.9692 7.22647 62.993 7.73988C63.0178 8.24608 62.9766 8.80974 62.8692 9.43087C62.7604 10.0593 62.6088 10.6102 62.4143 11.0833C62.2199 11.5564 61.9761 11.9434 61.6828 12.2442C61.3895 12.545 61.0468 12.7595 60.6547 12.8881C60.2639 13.0092 59.8177 13.032 59.3161 12.9565ZM59.4547 12.1563C59.7837 12.2059 60.072 12.1892 60.3196 12.1065C60.5684 12.0166 60.7862 11.873 60.973 11.6762C61.1597 11.4794 61.3111 11.2322 61.4269 10.9348C61.5518 10.6311 61.6478 10.2856 61.7148 9.89834L61.931 8.6486C61.9968 8.26857 62.0217 7.91616 62.0054 7.59123C61.9971 7.26755 61.9376 6.98496 61.8265 6.74331C61.7157 6.50166 61.5567 6.30526 61.3497 6.15411C61.1438 5.99574 60.8764 5.89164 60.5473 5.84223C60.218 5.79267 59.9291 5.81294 59.6804 5.90288C59.4329 5.98561 59.2158 6.12538 59.0288 6.32233C58.842 6.51915 58.6862 6.7694 58.5613 7.07295C58.4442 7.37776 58.3528 7.72017 58.287 8.1002L58.0707 9.34995C58.0038 9.7372 57.9745 10.0927 57.9828 10.4165C58.0002 10.7339 58.0644 11.0136 58.1752 11.2552C58.2863 11.4969 58.4446 11.6969 58.6503 11.8554C58.8574 12.0064 59.1254 12.1068 59.4547 12.1563Z" fill="white"/>
<path d="M65 13.6364L65.1749 6L66.1568 6.28404L66.0197 10.0878L65.9172 12.9655L65.9724 12.9815L67.7297 10.5823L70.0512 7.41037L71 7.68471L66.2577 14L65 13.6364Z" fill="white"/>
<path d="M70 14.8864L73.577 8L78 10.1136L77.6259 10.8337L74.0669 9.13311L72.8626 11.4517L76.2982 13.0934L75.9241 13.8135L72.4886 12.1719L71.2381 14.5792L74.7972 16.2798L74.4231 17L70 14.8864Z" fill="white"/>
<path d="M76.7827 18.6729L76 18.1516L80.58 12L82.947 13.5763C83.5495 13.9776 83.8934 14.4395 83.9783 14.9619C84.0634 15.4842 83.898 16.0245 83.4824 16.5827C83.1106 17.0821 82.6765 17.3906 82.18 17.5082C81.6837 17.6258 81.157 17.5344 80.6001 17.2339L80.2773 21L79.4013 20.4167L79.7725 16.7354L78.7381 16.0466L76.7827 18.6729ZM80.7695 16.4634C81.0987 16.6827 81.4104 16.7759 81.7043 16.7432C82.0088 16.7086 82.2682 16.5474 82.4825 16.2595L82.8237 15.8013C83.0381 15.5133 83.1089 15.2309 83.0364 14.9541C82.9743 14.6754 82.7787 14.4266 82.4493 14.2072L80.8838 13.1646L79.204 15.4208L80.7695 16.4634Z" fill="white"/>
<path d="M90.7115 21.2568L85.6103 26L85 25.2839L90.101 20.5405L88.4083 18.554L89.0041 18L93 22.6893L92.4042 23.2433L90.7115 21.2568Z" fill="white"/>
<path d="M93.0177 30.4022L91.3975 27.9707L88.5004 29.8177L88 29.0668L94.3791 25L94.8794 25.7509L92.0647 27.5454L93.6849 29.9769L96.4997 28.1824L97 28.9333L90.621 33L90.1206 32.2491L93.0177 30.4022Z" fill="white"/>
<path d="M92 34.9571L99.0445 32L101 36.0429L100.263 36.3521L98.6897 33.0991L96.318 34.0946L97.8369 37.2349L97.1001 37.5441L95.5812 34.4038L93.1187 35.4377L94.6922 38.6908L93.9555 39L92 34.9571Z" fill="white"/>
<path d="M95 44.2012L102.812 42L102.98 42.857L98.4976 44.0896L96.1325 44.7363L96.1505 44.8277L101.234 44.9123L101.444 45.9864L96.7736 48.0041L96.7915 48.0956L99.224 47.7915L103.836 47.2215L104 48.0557L95.9415 49L95.6703 47.6175L100.22 45.7067L100.202 45.6153L95.2711 45.5837L95 44.2012Z" fill="white"/>
<path d="M97.0032 52.6536C96.9835 52.218 97.0551 51.8403 97.218 51.5203C97.3884 51.2001 97.6388 50.9315 97.969 50.7142C98.2994 50.4969 98.7097 50.3311 99.1999 50.2168C99.6901 50.1025 100.253 50.0331 100.887 50.0087C101.515 49.9846 102.078 50.0106 102.577 50.0869C103.083 50.1629 103.51 50.2965 103.859 50.4876C104.208 50.6788 104.478 50.9275 104.669 51.2338C104.868 51.5397 104.977 51.9106 104.997 52.3463C105.017 52.7818 104.941 53.1598 104.771 53.48C104.608 53.7999 104.361 54.0685 104.031 54.2858C103.701 54.5029 103.287 54.6689 102.789 54.7836C102.299 54.8978 101.74 54.967 101.113 54.9911C100.478 55.0155 99.911 54.9896 99.4122 54.9133C98.9135 54.8371 98.4896 54.7033 98.1408 54.5123C97.792 54.3212 97.5183 54.0725 97.3197 53.7665C97.1284 53.4602 97.0228 53.0893 97.0032 52.6536ZM97.8114 52.6225C97.8243 52.9084 97.8943 53.1478 98.0213 53.3407C98.1558 53.5332 98.3365 53.6899 98.5638 53.8107C98.7911 53.9316 99.061 54.0132 99.3735 54.0557C99.6936 54.1048 100.049 54.1218 100.44 54.1067L101.703 54.0582C102.086 54.0435 102.436 53.9993 102.75 53.9258C103.065 53.8591 103.33 53.757 103.546 53.6191C103.762 53.4813 103.924 53.3114 104.033 53.1095C104.15 52.9073 104.202 52.6632 104.189 52.3773C104.176 52.0914 104.102 51.8522 103.968 51.6597C103.841 51.4668 103.663 51.3099 103.436 51.1891C103.209 51.0684 102.935 50.9835 102.615 50.9344C102.295 50.8921 101.943 50.8783 101.56 50.8931L100.297 50.9417C99.9062 50.9568 99.5531 50.9976 99.2381 51.0642C98.9309 51.1374 98.6695 51.2429 98.454 51.3807C98.2383 51.5187 98.0722 51.6887 97.9558 51.8909C97.8466 52.0928 97.7984 52.3367 97.8114 52.6225Z" fill="white"/>
<path d="M96.4384 57.9896L96.5367 57L104 57.8993L103.703 60.8918C103.627 61.6536 103.381 62.212 102.963 62.5671C102.546 62.922 101.998 63.0587 101.321 62.9771C100.715 62.9041 100.248 62.673 99.9183 62.2835C99.5892 61.8942 99.4288 61.3661 99.4372 60.6996L96 62.4074L96.1098 61.3L99.4951 59.6813L99.6248 58.3735L96.4384 57.9896ZM100.187 60.4442C100.146 60.8605 100.207 61.1937 100.37 61.4437C100.539 61.7027 100.798 61.853 101.147 61.8951L101.703 61.9622C102.052 62.0043 102.331 61.9187 102.54 61.7053C102.755 61.5008 102.883 61.1904 102.925 60.7741L103.121 58.795L100.384 58.4651L100.187 60.4442Z" fill="white"/>
<path d="M96.0992 64L103 66.152L102.777 67.1185L96.5985 65.1916L95.7217 69L95 68.775L96.0992 64Z" fill="white"/>
<path d="M101 73.2568L100.153 75.3239C99.7829 76.2284 99.2171 76.7663 98.4561 76.9379C97.695 77.1093 96.7457 76.926 95.6081 76.3878C94.4705 75.8497 93.7036 75.2212 93.3073 74.5023C92.9109 73.7834 92.898 72.9715 93.2685 72.067L94.1151 70L101 73.2568ZM94.0059 72.3652C93.7627 72.9589 93.7711 73.4943 94.0309 73.9714C94.2878 74.4557 94.7649 74.8628 95.4619 75.1924L96.5272 75.6963C97.2242 76.0261 97.8256 76.1292 98.3315 76.0057C98.8345 75.8895 99.2075 75.5343 99.4507 74.9408L99.9152 73.8065L94.4705 71.2311L94.0059 72.3652Z" fill="white"/>
<path d="M92.527 79.719L95.1192 80.9964L97 82.1866L96.4828 83L94.602 81.8098L92.3389 80.0148L92.527 79.719ZM90.1907 78.4481C90.3513 78.1953 90.5175 78.0499 90.6891 78.0116C90.8568 77.9794 91.021 78.0142 91.1816 78.1159L91.3484 78.2213C91.509 78.323 91.6104 78.4563 91.6528 78.6214C91.6912 78.7926 91.63 79.0045 91.4694 79.2571C91.3088 79.5098 91.1446 79.6522 90.9768 79.6844C90.8053 79.7226 90.639 79.691 90.4784 79.5893L90.3116 79.4838C90.151 79.3821 90.0516 79.2457 90.0132 79.0746C89.971 78.9096 90.0301 78.7006 90.1907 78.4481Z" fill="white"/>
</g>
<defs>
<radialGradient id="paint0_radial_159_60" cx="0" cy="0" r="1" gradientUnits="userSpaceOnUse" gradientTransform="translate(108.115 67.3512) rotate(-165.246) scale(113.643 176.778)">
<stop stop-color="#F4A4ED"/>
<stop offset="1" stop-color="#F278ED"/>
</radialGradient>
<clipPath id="clip0_159_60">
<rect width="109" height="109" fill="white"/>
</clipPath>
</defs>
</svg>
